<svg xmlns="http://www.w3.org/2000/svg" viewBox="0 0 1600 900" role="img" aria-label="Hyderabad student campus commute illustration">
  <defs>
    <linearGradient id="campus" x1="0" y1="0" x2="1" y2="1">
      <stop offset="0" stop-color="#f8fafc"/>
      <stop offset=".55" stop-color="#eef2ff"/>
      <stop offset="1" stop-color="#f0fdfa"/>
    </linearGradient>
  </defs>
  <rect width="1600" height="900" fill="url(#campus)"/>
  <rect x="140" y="230" width="470" height="330" rx="28" fill="#fff" opacity=".82"/>
  <rect x="1010" y="260" width="380" height="280" rx="28" fill="#fff" opacity=".7"/>
  <path d="M0 655 C265 575 490 625 760 555 C1040 482 1215 492 1600 410 L1600 900 L0 900Z" fill="#334155"/>
  <path d="M180 705 C435 650 620 660 850 595 C1030 545 1230 530 1450 472" stroke="#f8fafc" stroke-width="14" opacity=".78"/>
  <circle cx="285" cy="618" r="32" fill="#2563eb"/>
  <circle cx="420" cy="588" r="32" fill="#10b981"/>
  <circle cx="1205" cy="500" r="32" fill="#8b5cf6"/>
  <path d="M285 618 C550 558 820 584 1205 500" stroke="#38bdf8" stroke-width="8" stroke-dasharray="16 20" fill="none"/>
  <g transform="translate(670 625)">
    <rect width="275" height="92" rx="36" fill="#2563eb"/>
    <circle cx="66" cy="94" r="25" fill="#020617"/>
    <circle cx="212" cy="94" r="25" fill="#020617"/>
    <rect x="48" y="24" width="82" height="34" rx="12" fill="#dbeafe"/>
    <rect x="146" y="24" width="64" height="34" rx="12" fill="#dbeafe"/>
  </g>
  <path d="M220 280h310M220 340h260M1080 315h225M1080 375h170" stroke="#93c5fd" stroke-width="16" stroke-linecap="round" opacity=".8"/>
</svg>
